PathFileType	4	(X/Y/Z)	C:\Data Capture\Research\archery\Archery pilot2.trc
DataRate	CameraRate	NumFrames	NumMarkers	Units	OrigDataRate	OrigDataStartFrame	OrigNumFrames
100.00	100.00	      95	3	mm	100.00	751	      1500
Frame#	Time	Marker 1			Marker 2			Marker 3			
		X1	Y1	Z1	X2	Y2	Z2	X3	Y3	Z3	

751	7.500	721.13953	543.38489	1557.14441	809.91882	535.80560	1510.92078	745.92175	488.97775	1427.97937	
752	7.510	717.85651	542.82263	1557.99084	806.66992	535.23114	1511.91235	742.78436	488.38730	1428.89160	
753	7.520	714.53467	542.33173	1558.82141	803.37494	534.74170	1512.90942	739.66223	487.86856	1429.78882	
754	7.530	711.17932	541.89996	1559.63708	800.04303	534.33539	1513.90210	736.56995	487.39603	1430.66016	
755	7.540	707.79108	541.51550	1560.43823	796.68475	534.00598	1514.88025	733.50879	486.95981	1431.49548	
756	7.550	704.36847	541.17017	1561.22607	793.31818	533.74414	1515.83765	730.46851	486.57803	1432.29114	
757	7.560	700.91199	540.85742	1561.99963	789.96906	533.53955	1516.76941	727.43658	486.28146	1433.04956	
758	7.570	697.43225	540.57495	1562.75159	786.66235	533.38245	1517.66809	724.40857	486.08798	1433.77515	
759	7.580	693.95642	540.33173	1563.46741	783.41650	533.26489	1518.52185	721.39105	485.99670	1434.47205	
760	7.590	690.52484	540.14923	1564.12915	780.24329	533.18353	1519.31421	718.39374	485.99774	1435.13879	
761	7.600	687.18170	540.05322	1564.71558	777.14954	533.13995	1520.02490	715.42389	486.07739	1435.76233	
762	7.610	683.96442	540.06256	1565.20215	774.13770	533.13934	1520.63184	712.48785	486.21649	1436.31909	
763	7.620	680.89520	540.18207	1565.56628	771.20905	533.18866	1521.11255	709.59833	486.38751	1436.78247	
764	7.630	677.97961	540.40155	1565.79736	768.36621	533.29443	1521.44788	706.77924	486.55569	1437.13159	
765	7.640	675.21332	540.69958	1565.89990	765.61505	533.45996	1521.62817	704.05725	486.69016	1437.35803	
766	7.650	672.58777	541.04926	1565.89050	762.96332	533.68109	1521.65710	701.44647	486.77747	1437.46667	
767	7.660	670.09338	541.42010	1565.79138	760.41919	533.93909	1521.55225	698.94641	486.81973	1437.47119	
768	7.670	667.72217	541.78094	1565.62720	757.98901	534.19995	1521.34265	696.54987	486.82764	1437.38940	
769	7.680	665.46832	542.10559	1565.42212	755.67761	534.42383	1521.06421	694.24634	486.81955	1437.24243	
770	7.690	663.32770	542.37451	1565.19800	753.48730	534.57703	1520.75330	692.02588	486.81445	1437.05420	
771	7.700	661.29761	542.57257	1564.97302	751.41589	534.63995	1520.44141	689.88068	486.82401	1436.84680	
772	7.710	659.37610	542.69006	1564.76160	749.45398	534.60962	1520.15137	687.80341	486.85672	1436.63489	
773	7.720	657.55811	542.72882	1564.57385	747.58563	534.49854	1519.89294	685.78503	486.92572	1436.42383	
774	7.730	655.83240	542.70245	1564.41479	745.79132	534.33069	1519.66052	683.81537	487.04828	1436.20972	
775	7.740	654.18445	542.63153	1564.27991	744.05396	534.13879	1519.43616	681.88550	487.23645	1435.98120	
776	7.750	652.59912	542.53937	1564.15344	742.36469	533.95923	1519.19580	679.99066	487.48676	1435.72156	
777	7.760	651.06268	542.45166	1564.00879	740.72241	533.82678	1518.91284	678.13080	487.78073	1435.41125	
778	7.770	649.56506	542.39825	1563.81299	739.12970	533.76819	1518.56299	676.30811	488.09351	1435.03320	
779	7.780	648.10016	542.41040	1563.53406	737.58643	533.79462	1518.12708	674.52594	488.40137	1434.57776	
780	7.790	646.66357	542.51385	1563.15259	736.08582	533.89880	1517.59680	672.78619	488.69131	1434.04761	
781	7.800	645.25220	542.72137	1562.67151	734.61566	534.06287	1516.97766	671.08746	488.96793	1433.45862	
782	7.810	643.86377	543.02692	1562.11841	733.16516	534.26880	1516.29236	669.42731	489.25058	1432.83337	
783	7.820	642.49847	543.40674	1561.53674	731.72900	534.50452	1515.57837	667.80402	489.56726	1432.19482	
784	7.830	641.15863	543.82977	1560.96936	730.30573	534.76642	1514.87732	666.21747	489.94739	1431.56531	
785	7.840	639.84418	544.27008	1560.44580	728.89380	535.06024	1514.22131	664.66901	490.41330	1430.96509	
786	7.850	638.54877	544.71252	1559.97925	727.49219	535.39789	1513.62610	663.16083	490.97479	1430.40833	
787	7.860	637.26276	545.15240	1559.56763	726.10162	535.78973	1513.09070	661.69165	491.62753	1429.89844	
788	7.870	635.98151	545.59692	1559.19775	724.72504	536.23840	1512.60266	660.25531	492.35425	1429.42932	
789	7.880	634.70813	546.06281	1558.84888	723.36920	536.73969	1512.14282	658.84601	493.12790	1428.99133	
790	7.890	633.44653	546.56647	1558.49744	722.04462	537.28900	1511.69263	657.46771	493.91757	1428.57617	
791	7.900	632.19891	547.11755	1558.12317	720.76080	537.88782	1511.23865	656.13599	494.69415	1428.17822	
792	7.910	630.97089	547.71887	1557.71619	719.52356	538.54352	1510.77466	654.86658	495.43503	1427.78967	
793	7.920	629.77295	548.36896	1557.27759	718.33582	539.26135	1510.30029	653.66412	496.12924	1427.40076	
794	7.930	628.61542	549.06067	1556.81836	717.20074	540.03534	1509.82117	652.52002	496.77814	1427.00439	
795	7.940	627.50708	549.78052	1556.35498	716.12311	540.84705	1509.34766	651.42041	497.38931	1426.59912	
796	7.950	626.45825	550.51434	1555.90540	715.10693	541.67102	1508.89136	650.35638	497.96793	1426.18921	
797	7.960	625.47919	551.25146	1555.48315	714.15179	542.48169	1508.45825	649.33130	498.51379	1425.78467	
798	7.970	624.57678	551.98090	1555.09338	713.25531	543.25543	1508.04700	648.35730	499.02814	1425.39893	
799	7.980	623.75275	552.68658	1554.73413	712.41711	543.96906	1507.65100	647.44812	499.51740	1425.04346	
800	7.990	623.00488	553.34930	1554.39978	711.63788	544.60022	1507.26343	646.61407	499.98566	1424.72021	
801	8.000	622.32867	553.95233	1554.08679	710.91852	545.13336	1506.88293	645.85754	500.43036	1424.42053	
802	8.010	621.71674	554.48645	1553.79236	710.25885	545.56738	1506.51367	645.17157	500.84891	1424.13257	
803	8.020	621.15979	554.95209	1553.51184	709.65613	545.91675	1506.16052	644.54279	501.24292	1423.84766	
804	8.030	620.65326	555.35797	1553.23755	709.10693	546.20575	1505.82520	643.95807	501.61594	1423.56104	
805	8.040	620.20032	555.71991	1552.96277	708.61060	546.46082	1505.50684	643.41040	501.97128	1423.27124	
806	8.050	619.80457	556.05817	1552.68213	708.16608	546.70703	1505.20068	642.89935	502.31311	1422.97913	
807	8.060	619.46332	556.39154	1552.39270	707.76788	546.96490	1504.89929	642.42908	502.64661	1422.68896	
808	8.070	619.16907	556.72961	1552.09497	707.41022	547.24579	1504.59509	642.00513	502.97714	1422.40649	
809	8.080	618.91608	557.07068	1551.79285	707.09467	547.54889	1504.28577	641.63123	503.30869	1422.13574	
810	8.090	618.70325	557.40741	1551.49438	706.82935	547.86542	1503.97534	641.30774	503.64294	1421.87646	
811	8.100	618.53113	557.73358	1551.21094	706.62012	548.18549	1503.67004	641.03235	503.98135	1421.62329	
812	8.110	618.39880	558.04651	1550.95374	706.46466	548.50238	1503.37195	640.80249	504.32742	1421.36926	
813	8.120	618.30536	558.34546	1550.72827	706.35425	548.81378	1503.07971	640.61725	504.68564	1421.10999	
814	8.130	618.25012	558.63000	1550.53076	706.27850	549.12177	1502.79028	640.47742	505.05853	1420.84644	
815	8.140	618.23120	558.90155	1550.34949	706.22827	549.43164	1502.50024	640.38666	505.44452	1420.58337	
816	8.150	618.24493	559.16522	1550.16809	706.19861	549.74933	1502.20740	640.35217	505.83646	1420.32434	
817	8.160	618.28772	559.43060	1549.96936	706.19067	550.07990	1501.91309	640.38062	506.22253	1420.06946	
818	8.170	618.35870	559.71033	1549.73938	706.21301	550.42712	1501.62158	640.47180	506.58990	1419.81738	
819	8.180	618.46118	560.01569	1549.47180	706.28180	550.79376	1501.33887	640.61945	506.92847	1419.56787	
820	8.190	618.60229	560.35040	1549.17004	706.41718	551.17804	1501.07178	640.81732	507.23334	1419.32239	
821	8.200	618.78973	560.70551	1548.84839	706.63702	551.56989	1500.82825	641.06409	507.50525	1419.08313	
822	8.210	619.02917	561.06061	1548.52637	706.95087	551.94965	1500.61511	641.36243	507.74930	1418.85242	
823	8.220	619.32471	561.39099	1548.22144	707.35510	552.29260	1500.43494	641.71362	507.97247	1418.62952	
824	8.230	619.67902	561.67444	1547.94495	707.83295	552.57892	1500.28247	642.11340	508.18051	1418.40881	
825	8.240	620.09161	561.89648	1547.70093	708.36249	552.80432	1500.14429	642.55438	508.37549	1418.18127	
826	8.250	620.55908	562.05304	1547.48755	708.92761	552.98083	1500.00232	643.03046	508.55740	1417.93811	
827	8.260	621.08075	562.15228	1547.29797	709.52362	553.12866	1499.83813	643.54120	508.72702	1417.67188	
828	8.270	621.66272	562.21375	1547.12024	710.15289	553.26587	1499.63647	644.09296	508.88669	1417.37854	
829	8.280	622.31580	562.26166	1546.93909	710.81763	553.40277	1499.38647	644.69507	509.03949	1417.05859	
830	8.290	623.04633	562.31598	1546.73938	711.51587	553.54205	1499.08264	645.35187	509.18845	1416.71814	
831	8.300	623.84973	562.38672	1546.51038	712.24127	553.68152	1498.72693	646.06091	509.33661	1416.36841	
832	8.310	624.71094	562.47272	1546.24902	712.98877	553.81598	1498.33105	646.81696	509.48630	1416.02185	
833	8.320	625.60992	562.56238	1545.95984	713.76147	553.93903	1497.91492	647.61627	509.63525	1415.68738	
834	8.330	626.52661	562.63794	1545.65222	714.56647	554.04480	1497.50269	648.45715	509.77374	1415.36792	
835	8.340	627.44348	562.68372	1545.33630	715.40344	554.12939	1497.11584	649.33759	509.88882	1415.06006	
836	8.350	628.35040	562.69098	1545.02295	716.26343	554.18976	1496.76782	650.25323	509.97073	1414.75867	
837	8.360	629.24664	562.65662	1544.72156	717.13635	554.22211	1496.46094	651.19641	510.01590	1414.46021	
838	8.370	630.13647	562.58160	1544.43860	718.01465	554.22412	1496.18726	652.15710	510.02597	1414.16541	
839	8.380	631.02325	562.47217	1544.17639	718.89240	554.19794	1495.93323	653.12128	510.00415	1413.87524	
840	8.390	631.90527	562.33844	1543.93396	719.76526	554.15039	1495.68640	654.06921	509.95081	1413.58936	
841	8.400	632.77393	562.19055	1543.70618	720.63049	554.08929	1495.43970	654.97906	509.86359	1413.30859	
842	8.410	633.61804	562.03577	1543.48389	721.48560	554.01996	1495.19373	655.83691	509.74380	1413.03711	
843	8.420	634.43274	561.87683	1543.25781	722.32825	553.94025	1494.95337	656.64325	509.59915	1412.78223	
844	8.430	635.22150	561.71136	1543.02417	723.15509	553.83911	1494.72400	657.40985	509.43875	1412.55115	
845	8.440	635.99200	561.53070	1542.78821	723.96210	553.70148	1494.51025	658.15350	509.26678	1412.35046	
